<svg id="visual" viewBox="0 0 960 540" width="960" height="540" xmlns="http://www.w3.org/2000/svg" xmlns:xlink="http://www.w3.org/1999/xlink" version="1.1"><rect x="0" y="0" width="960" height="540" fill="#151515"></rect><path d="M0 394L22.8 392.3C45.7 390.7 91.3 387.3 137 378.5C182.7 369.7 228.3 355.3 274 357.7C319.7 360 365.3 379 411.2 387.5C457 396 503 394 548.8 394C594.7 394 640.3 396 686 389.2C731.7 382.3 777.3 366.7 823 359.3C868.7 352 914.3 353 937.2 353.5L960 354L960 541L937.2 541C914.3 541 868.7 541 823 541C777.3 541 731.7 541 686 541C640.3 541 594.7 541 548.8 541C503 541 457 541 411.2 541C365.3 541 319.7 541 274 541C228.3 541 182.7 541 137 541C91.3 541 45.7 541 22.8 541L0 541Z" fill="#414141"></path><path d="M0 418L22.8 417.2C45.7 416.3 91.3 414.7 137 415.7C182.7 416.7 228.3 420.3 274 422.3C319.7 424.3 365.3 424.7 411.2 418.3C457 412 503 399 548.8 387.5C594.7 376 640.3 366 686 366.5C731.7 367 777.3 378 823 382.8C868.7 387.7 914.3 386.3 937.2 385.7L960 385L960 541L937.2 541C914.3 541 868.7 541 823 541C777.3 541 731.7 541 686 541C640.3 541 594.7 541 548.8 541C503 541 457 541 411.2 541C365.3 541 319.7 541 274 541C228.3 541 182.7 541 137 541C91.3 541 45.7 541 22.8 541L0 541Z" fill="#373737"></path><path d="M0 433L22.8 435.8C45.7 438.7 91.3 444.3 137 440.5C182.7 436.7 228.3 423.3 274 422.8C319.7 422.3 365.3 434.7 411.2 439.2C457 443.7 503 440.3 548.8 433.5C594.7 426.7 640.3 416.3 686 410.5C731.7 404.7 777.3 403.3 823 407.8C868.7 412.3 914.3 422.7 937.2 427.8L960 433L960 541L937.2 541C914.3 541 868.7 541 823 541C777.3 541 731.7 541 686 541C640.3 541 594.7 541 548.8 541C503 541 457 541 411.2 541C365.3 541 319.7 541 274 541C228.3 541 182.7 541 137 541C91.3 541 45.7 541 22.8 541L0 541Z" fill="#2d2d2d"></path><path d="M0 481L22.8 480C45.7 479 91.3 477 137 470.5C182.7 464 228.3 453 274 447.7C319.7 442.3 365.3 442.7 411.2 449.2C457 455.7 503 468.3 548.8 472.5C594.7 476.7 640.3 472.3 686 469.8C731.7 467.3 777.3 466.7 823 461C868.7 455.3 914.3 444.7 937.2 439.3L960 434L960 541L937.2 541C914.3 541 868.7 541 823 541C777.3 541 731.7 541 686 541C640.3 541 594.7 541 548.8 541C503 541 457 541 411.2 541C365.3 541 319.7 541 274 541C228.3 541 182.7 541 137 541C91.3 541 45.7 541 22.8 541L0 541Z" fill="#242424"></path><path d="M0 479L22.8 480.3C45.7 481.7 91.3 484.3 137 486C182.7 487.7 228.3 488.3 274 487.2C319.7 486 365.3 483 411.2 483.5C457 484 503 488 548.8 486.8C594.7 485.7 640.3 479.3 686 482.5C731.7 485.7 777.3 498.3 823 499C868.7 499.7 914.3 488.3 937.2 482.7L960 477L960 541L937.2 541C914.3 541 868.7 541 823 541C777.3 541 731.7 541 686 541C640.3 541 594.7 541 548.8 541C503 541 457 541 411.2 541C365.3 541 319.7 541 274 541C228.3 541 182.7 541 137 541C91.3 541 45.7 541 22.8 541L0 541Z" fill="#1b1b1b"></path></svg>