<svg id="visual" viewBox="0 0 960 540" width="960" height="540" xmlns="http://www.w3.org/2000/svg" xmlns:xlink="http://www.w3.org/1999/xlink" version="1.1"><path d="M0 39L14.5 39.8C29 40.7 58 42.3 87.2 49.5C116.3 56.7 145.7 69.3 174.8 68.5C204 67.7 233 53.3 262 48.8C291 44.3 320 49.7 349 48.7C378 47.7 407 40.3 436.2 42.2C465.3 44 494.7 55 523.8 59.5C553 64 582 62 611 62.8C640 63.7 669 67.3 698 67.3C727 67.3 756 63.7 785.2 65.5C814.3 67.3 843.7 74.7 872.8 78.3C902 82 931 82 945.5 82L960 82L960 0L945.5 0C931 0 902 0 872.8 0C843.7 0 814.3 0 785.2 0C756 0 727 0 698 0C669 0 640 0 611 0C582 0 553 0 523.8 0C494.7 0 465.3 0 436.2 0C407 0 378 0 349 0C320 0 291 0 262 0C233 0 204 0 174.8 0C145.7 0 116.3 0 87.2 0C58 0 29 0 14.5 0L0 0Z" fill="#484848"></path><path d="M0 82L14.5 85.7C29 89.3 58 96.7 87.2 102C116.3 107.3 145.7 110.7 174.8 110.7C204 110.7 233 107.3 262 105.7C291 104 320 104 349 99.5C378 95 407 86 436.2 84.2C465.3 82.3 494.7 87.7 523.8 88.5C553 89.3 582 85.7 611 86.5C640 87.3 669 92.7 698 99.8C727 107 756 116 785.2 118.7C814.3 121.3 843.7 117.7 872.8 116.8C902 116 931 118 945.5 119L960 120L960 80L945.5 80C931 80 902 80 872.8 76.3C843.7 72.7 814.3 65.3 785.2 63.5C756 61.7 727 65.3 698 65.3C669 65.3 640 61.7 611 60.8C582 60 553 62 523.8 57.5C494.7 53 465.3 42 436.2 40.2C407 38.3 378 45.7 349 46.7C320 47.7 291 42.3 262 46.8C233 51.3 204 65.7 174.8 66.5C145.7 67.3 116.3 54.7 87.2 47.5C58 40.3 29 38.7 14.5 37.8L0 37Z" fill="#3e3e3e"></path><path d="M0 141L14.5 146.5C29 152 58 163 87.2 166.7C116.3 170.3 145.7 166.7 174.8 160.3C204 154 233 145 262 145.8C291 146.7 320 157.3 349 154.7C378 152 407 136 436.2 129.8C465.3 123.7 494.7 127.3 523.8 132.7C553 138 582 145 611 145.8C640 146.7 669 141.3 698 146.8C727 152.3 756 168.7 785.2 175C814.3 181.3 843.7 177.7 872.8 179.3C902 181 931 188 945.5 191.5L960 195L960 118L945.5 117C931 116 902 114 872.8 114.8C843.7 115.7 814.3 119.3 785.2 116.7C756 114 727 105 698 97.8C669 90.7 640 85.3 611 84.5C582 83.7 553 87.3 523.8 86.5C494.7 85.7 465.3 80.3 436.2 82.2C407 84 378 93 349 97.5C320 102 291 102 262 103.7C233 105.3 204 108.7 174.8 108.7C145.7 108.7 116.3 105.3 87.2 100C58 94.7 29 87.3 14.5 83.7L0 80Z" fill="#343434"></path><path d="M0 266L14.5 258.7C29 251.3 58 236.7 87.2 239.3C116.3 242 145.7 262 174.8 265.7C204 269.3 233 256.7 262 248.5C291 240.3 320 236.7 349 229.5C378 222.3 407 211.7 436.2 205.3C465.3 199 494.7 197 523.8 203.3C553 209.7 582 224.3 611 232.5C640 240.7 669 242.3 698 246.8C727 251.3 756 258.7 785.2 266.8C814.3 275 843.7 284 872.8 283C902 282 931 271 945.5 265.5L960 260L960 193L945.5 189.5C931 186 902 179 872.8 177.3C843.7 175.7 814.3 179.3 785.2 173C756 166.7 727 150.3 698 144.8C669 139.3 640 144.7 611 143.8C582 143 553 136 523.8 130.7C494.7 125.3 465.3 121.7 436.2 127.8C407 134 378 150 349 152.7C320 155.3 291 144.7 262 143.8C233 143 204 152 174.8 158.3C145.7 164.7 116.3 168.3 87.2 164.7C58 161 29 150 14.5 144.5L0 139Z" fill="#2a2a2a"></path><path d="M0 298L14.5 290.8C29 283.7 58 269.3 87.2 269.3C116.3 269.3 145.7 283.7 174.8 284.5C204 285.3 233 272.7 262 269C291 265.3 320 270.7 349 267.2C378 263.7 407 251.3 436.2 241.5C465.3 231.7 494.7 224.3 523.8 233.3C553 242.3 582 267.7 611 282C640 296.3 669 299.7 698 297.8C727 296 756 289 785.2 293.5C814.3 298 843.7 314 872.8 313C902 312 931 294 945.5 285L960 276L960 258L945.5 263.5C931 269 902 280 872.8 281C843.7 282 814.3 273 785.2 264.8C756 256.7 727 249.3 698 244.8C669 240.3 640 238.7 611 230.5C582 222.3 553 207.7 523.8 201.3C494.7 195 465.3 197 436.2 203.3C407 209.7 378 220.3 349 227.5C320 234.7 291 238.3 262 246.5C233 254.7 204 267.3 174.8 263.7C145.7 260 116.3 240 87.2 237.3C58 234.7 29 249.3 14.5 256.7L0 264Z" fill="#242424"></path><path d="M0 444L14.5 438.5C29 433 58 422 87.2 415.7C116.3 409.3 145.7 407.7 174.8 412.2C204 416.7 233 427.3 262 436.3C291 445.3 320 452.7 349 449.2C378 445.7 407 431.3 436.2 420.5C465.3 409.7 494.7 402.3 523.8 403.2C553 404 582 413 611 425.7C640 438.3 669 454.7 698 452.8C727 451 756 431 785.2 424.7C814.3 418.3 843.7 425.7 872.8 435.7C902 445.7 931 458.3 945.5 464.7L960 471L960 274L945.5 283C931 292 902 310 872.8 311C843.7 312 814.3 296 785.2 291.5C756 287 727 294 698 295.8C669 297.7 640 294.3 611 280C582 265.7 553 240.3 523.8 231.3C494.7 222.3 465.3 229.7 436.2 239.5C407 249.3 378 261.7 349 265.2C320 268.7 291 263.3 262 267C233 270.7 204 283.3 174.8 282.5C145.7 281.7 116.3 267.3 87.2 267.3C58 267.3 29 281.7 14.5 288.8L0 296Z" fill="#222222"></path><path d="M0 492L14.5 481.3C29 470.7 58 449.3 87.2 442.2C116.3 435 145.7 442 174.8 451.8C204 461.7 233 474.3 262 480.7C291 487 320 487 349 483.3C378 479.7 407 472.3 436.2 461.5C465.3 450.7 494.7 436.3 523.8 437.3C553 438.3 582 454.7 611 465.5C640 476.3 669 481.7 698 478C727 474.3 756 461.7 785.2 460.8C814.3 460 843.7 471 872.8 480C902 489 931 496 945.5 499.5L960 503L960 469L945.5 462.7C931 456.3 902 443.7 872.8 433.7C843.7 423.7 814.3 416.3 785.2 422.7C756 429 727 449 698 450.8C669 452.7 640 436.3 611 423.7C582 411 553 402 523.8 401.2C494.7 400.3 465.3 407.7 436.2 418.5C407 429.3 378 443.7 349 447.2C320 450.7 291 443.3 262 434.3C233 425.3 204 414.7 174.8 410.2C145.7 405.7 116.3 407.3 87.2 413.7C58 420 29 431 14.5 436.5L0 442Z" fill="#1f1f1f"></path><path d="M0 541L14.5 541C29 541 58 541 87.2 541C116.3 541 145.7 541 174.8 541C204 541 233 541 262 541C291 541 320 541 349 541C378 541 407 541 436.2 541C465.3 541 494.7 541 523.8 541C553 541 582 541 611 541C640 541 669 541 698 541C727 541 756 541 785.2 541C814.3 541 843.7 541 872.8 541C902 541 931 541 945.5 541L960 541L960 501L945.5 497.5C931 494 902 487 872.8 478C843.7 469 814.3 458 785.2 458.8C756 459.7 727 472.3 698 476C669 479.7 640 474.3 611 463.5C582 452.7 553 436.3 523.8 435.3C494.7 434.3 465.3 448.7 436.2 459.5C407 470.3 378 477.7 349 481.3C320 485 291 485 262 478.7C233 472.3 204 459.7 174.8 449.8C145.7 440 116.3 433 87.2 440.2C58 447.3 29 468.7 14.5 479.3L0 490Z" fill="#1d1d1d"></path></svg>